<svg width="32" height="32" viewBox="0 0 32 32" fill="none" xmlns="http://www.w3.org/2000/svg">
<path d="M19.6135 13.3333C19.6135 15.5425 17.8573 17.3333 15.6908 17.3333C13.5244 17.3333 11.7681 15.5425 11.7681 13.3333C11.7681 11.1242 13.5244 9.33334 15.6908 9.33334C17.8573 9.33334 19.6135 11.1242 19.6135 13.3333Z" fill="#EEF0F1"/>
<path d="M26.1514 16C26.1514 17.4728 24.9805 18.6667 23.5362 18.6667C22.0919 18.6667 20.9211 17.4728 20.9211 16C20.9211 14.5273 22.0919 13.3333 23.5362 13.3333C24.9805 13.3333 26.1514 14.5273 26.1514 16Z" fill="#EEF0F1"/>
<path d="M10.4606 16C10.4606 17.4728 9.28972 18.6667 7.84542 18.6667C6.40112 18.6667 5.23029 17.4728 5.23029 16C5.23029 14.5273 6.40112 13.3333 7.84542 13.3333C9.28972 13.3333 10.4606 14.5273 10.4606 16Z" fill="#EEF0F1"/>
<path d="M23.4489 22.6667C23.4489 25.244 22.5574 26 15.6035 26C9.80674 26 7.75812 25.244 7.75812 22.6667C7.75812 20.0893 11.2706 18 15.6035 18C19.9364 18 23.4489 20.0893 23.4489 22.6667Z" fill="#EEF0F1"/>
<path d="M19.6135 25.8641C20.8224 25.7825 22.5403 25.8569 24.0276 25.8641C24.8043 25.8679 26.4249 26.1679 26.9704 25.8641C27.8342 25.3831 27.3691 24.2686 26.9704 22.2786C26.2348 18.6077 23.8873 19.5477 21.0848 19.3333C21.8781 20.3017 22.5563 20.9082 22.5563 22.2786C22.5563 23.6921 20.4491 24.8789 19.6135 25.8641Z" fill="#EEF0F1"/>
<path d="M11.7681 25.8641C10.5593 25.7825 8.8413 25.8569 7.35403 25.8641C6.57734 25.8679 4.95676 26.1679 4.41129 25.8641C3.54748 25.3831 4.01253 24.2686 4.41129 22.2786C5.14685 18.6077 7.4944 19.5477 10.2969 19.3333C9.50351 20.3017 8.82539 20.9082 8.82539 22.2786C8.82539 23.6921 10.9325 24.8789 11.7681 25.8641Z" fill="#EEF0F1"/>
</svg>
