<svg width="6" height="20" viewBox="0 0 6 20" fill="none" xmlns="http://www.w3.org/2000/svg">
<path fill-rule="evenodd" clip-rule="evenodd" d="M3 19.75C1.48122 19.75 0.25 18.5188 0.25 17C0.25 15.4812 1.48122 14.25 3 14.25C4.51878 14.25 5.75 15.4812 5.75 17C5.75 18.5188 4.51878 19.75 3 19.75Z" fill="#EEF0F1"/>
<path fill-rule="evenodd" clip-rule="evenodd" d="M3 12.75C1.48122 12.75 0.25 11.5188 0.25 10C0.25 8.48122 1.48122 7.25 3 7.25C4.51878 7.25 5.75 8.48122 5.75 10C5.75 11.5188 4.51878 12.75 3 12.75Z" fill="#EEF0F1"/>
<path fill-rule="evenodd" clip-rule="evenodd" d="M0.25 3C0.25 4.51878 1.48122 5.75 3 5.75C4.51878 5.75 5.75 4.51878 5.75 3C5.75 1.48122 4.51878 0.25 3 0.25C1.48122 0.25 0.25 1.48122 0.25 3Z" fill="#EEF0F1"/>
</svg>
