<svg width="24" height="24" viewBox="0 0 24 24" fill="none" xmlns="http://www.w3.org/2000/svg">
<path fill-rule="evenodd" clip-rule="evenodd" d="M12 21.75C10.4812 21.75 9.25 20.5188 9.25 19C9.25 17.4812 10.4812 16.25 12 16.25C13.5188 16.25 14.75 17.4812 14.75 19C14.75 20.5188 13.5188 21.75 12 21.75Z" fill="#EEF0F1"/>
<path fill-rule="evenodd" clip-rule="evenodd" d="M12 14.75C10.4812 14.75 9.25 13.5188 9.25 12C9.25 10.4812 10.4812 9.25 12 9.25C13.5188 9.25 14.75 10.4812 14.75 12C14.75 13.5188 13.5188 14.75 12 14.75Z" fill="#EEF0F1"/>
<path fill-rule="evenodd" clip-rule="evenodd" d="M9.25 5C9.25 6.51878 10.4812 7.75 12 7.75C13.5188 7.75 14.75 6.51878 14.75 5C14.75 3.48122 13.5188 2.25 12 2.25C10.4812 2.25 9.25 3.48122 9.25 5Z" fill="#EEF0F1"/>
</svg>
