<svg width="20" height="20" viewBox="0 0 20 20" fill="none" xmlns="http://www.w3.org/2000/svg">
<path d="M11.924 2.67081L12.7582 1.83662C14.1403 0.454485 16.3812 0.454485 17.7633 1.83662C19.1455 3.21875 19.1455 5.45963 17.7633 6.84177L16.9291 7.67596L9.26002 15.3451C8.74057 15.8645 8.48085 16.1242 8.19448 16.3476C7.85666 16.6111 7.49115 16.837 7.10441 17.0213C6.77655 17.1776 6.4281 17.2937 5.73119 17.526L3.49993 18.2698L2.05618 18.751C1.71323 18.8653 1.33512 18.7761 1.07949 18.5204C0.823871 18.2648 0.734612 17.8867 0.84893 17.5438L1.33018 16.1L2.07393 13.8688C2.30623 13.1718 2.42239 12.8234 2.57863 12.4955C2.76295 12.1088 2.98885 11.7433 3.25234 11.4055C3.4757 11.1191 3.73542 10.8594 4.25487 10.3399L11.924 2.67081Z" fill="#016B5D"/>
<path d="M11.924 2.67081L12.7582 1.83662C14.1403 0.454485 16.3812 0.454485 17.7633 1.83662C19.1455 3.21875 19.1455 5.45963 17.7633 6.84177L16.9291 7.67596M11.924 2.67081C11.924 2.67081 12.0283 4.44347 13.5924 6.00758C15.1565 7.57169 16.9291 7.67596 16.9291 7.67596M11.924 2.67081L4.25487 10.3399C3.73542 10.8594 3.4757 11.1191 3.25234 11.4055C2.98885 11.7433 2.76295 12.1088 2.57863 12.4955C2.42239 12.8234 2.30623 13.1718 2.07393 13.8688L1.33018 16.1M16.9291 7.67596L9.26002 15.3451C8.74057 15.8645 8.48085 16.1242 8.19448 16.3476C7.85666 16.6111 7.49115 16.837 7.10441 17.0213C6.77655 17.1776 6.4281 17.2937 5.73119 17.526L3.49993 18.2698M3.49993 18.2698L2.05618 18.751C1.71323 18.8653 1.33512 18.7761 1.07949 18.5204C0.823871 18.2648 0.734612 17.8867 0.84893 17.5438L1.33018 16.1M3.49993 18.2698L1.33018 16.1" stroke="#E4E6E8" stroke-width="0.8"/>
</svg>
